<svg width="112" height="106" viewBox="0 0 112 106" fill="none" xmlns="http://www.w3.org/2000/svg">
<path d="M54.5005 34.916C53.8415 34.9957 53.186 35.1269 52.5415 35.3125C49.8224 36.0955 47.4489 37.7782 45.8101 40.085C44.1713 42.3917 43.3634 45.1864 43.519 48.0117C43.6747 50.8372 44.7852 53.5258 46.6675 55.6387C48.5498 57.7516 51.0935 59.1639 53.8823 59.6436C54.0879 59.6789 54.2942 59.7065 54.5005 59.7314V61.8711C48.6435 62.1453 43.4146 63.6134 39.6392 65.8242H29.2739L26.7124 61.3867C29.5591 58.475 33.4676 53.6539 38.5972 45.6641C49.1223 29.2701 52.3842 15.8386 53.2358 11.3926C51.0288 10.6428 49.5005 8.92522 49.5005 6.32422C49.5005 3.25079 51.634 0.677314 54.5005 0V34.916ZM57.5005 0C60.367 0.677314 62.5005 3.25079 62.5005 6.32422C62.5005 8.92556 60.9717 10.6429 58.7642 11.3926C59.6157 15.8384 62.8785 29.2698 73.4038 45.6641C78.5331 53.6535 82.4409 58.4749 85.2876 61.3867L82.7271 65.8242H73.3618C69.3728 63.4883 63.7611 61.9815 57.5005 61.8359V59.7324C59.0751 59.5421 60.6106 59.0537 62.02 58.2793C64.5 56.9166 66.4441 54.7527 67.5347 52.1416L62.8403 50.1807C62.1936 51.7291 61.0405 53.0122 59.5698 53.8203C58.0991 54.6284 56.3974 54.9143 54.7437 54.6299C53.09 54.3454 51.5815 53.5077 50.4653 52.2549C49.3492 51.002 48.6914 49.4068 48.5991 47.7314C48.5069 46.0562 48.9858 44.3991 49.9575 43.0312C50.9294 41.6633 52.3372 40.6655 53.9497 40.2012C55.5621 39.737 57.2841 39.834 58.8345 40.4756C60.3849 41.1172 61.672 42.2655 62.4849 43.7334L66.936 41.2695C65.5654 38.794 63.3953 36.8565 60.7808 35.7744C59.7244 35.3372 58.6201 35.0523 57.5005 34.917V0Z" fill="black"/>
<path d="M14.9827 77.7333H10.977C10.9486 77.4019 10.8728 77.1012 10.7497 76.8313C10.6313 76.5614 10.4656 76.3294 10.2526 76.1353C10.0442 75.9364 9.79091 75.7849 9.49261 75.6808C9.19432 75.5719 8.85578 75.5174 8.47699 75.5174C7.81411 75.5174 7.25303 75.6784 6.79375 76.0004C6.33921 76.3223 5.99356 76.784 5.75682 77.3853C5.52481 77.9866 5.40881 78.7087 5.40881 79.5515C5.40881 80.4416 5.52718 81.1874 5.76392 81.7887C6.0054 82.3853 6.35341 82.8351 6.80796 83.1381C7.2625 83.4364 7.80938 83.5856 8.44858 83.5856C8.81316 83.5856 9.13987 83.5406 9.42869 83.4506C9.71752 83.3559 9.96847 83.221 10.1815 83.0458C10.3946 82.8706 10.5674 82.6599 10.7 82.4137C10.8373 82.1628 10.9296 81.881 10.977 81.5685L14.9827 81.5969C14.9353 82.2125 14.7625 82.8398 14.4642 83.479C14.1659 84.1135 13.7421 84.7006 13.1929 85.2404C12.6484 85.7754 11.9737 86.2063 11.1688 86.533C10.3638 86.8597 9.42869 87.0231 8.36335 87.0231C7.02813 87.0231 5.83021 86.7366 4.7696 86.1637C3.71373 85.5908 2.87803 84.748 2.2625 83.6353C1.65171 82.5226 1.34631 81.1613 1.34631 79.5515C1.34631 77.9322 1.65881 76.5685 2.28381 75.4606C2.90881 74.3479 3.75161 73.5075 4.81222 72.9393C5.87282 72.3664 7.05653 72.0799 8.36335 72.0799C9.28191 72.0799 10.1271 72.2054 10.8989 72.4563C11.6706 72.7073 12.3477 73.0742 12.9301 73.5572C13.5125 74.0354 13.9813 74.6249 14.3364 75.3256C14.6915 76.0264 14.9069 76.829 14.9827 77.7333ZM17.5742 86.8242V72.2788H28.0572V75.4606H21.5231V77.9606H27.5174V81.1424H21.5231V83.6424H28.0288V86.8242H17.5742ZM30.8156 86.8242V72.2788H34.7645V83.6424H40.6452V86.8242H30.8156ZM48.638 86.8242H43.0414V72.2788H48.5812C50.0774 72.2788 51.37 72.57 52.459 73.1523C53.5528 73.73 54.3956 74.5633 54.9874 75.6523C55.584 76.7366 55.8823 78.0363 55.8823 79.5515C55.8823 81.0666 55.5864 82.3687 54.9945 83.4577C54.4027 84.542 53.5646 85.3754 52.4803 85.9577C51.396 86.5354 50.1153 86.8242 48.638 86.8242ZM46.9903 83.4719H48.496C49.2157 83.4719 49.8288 83.3559 50.3354 83.1239C50.8468 82.8919 51.2351 82.4918 51.5002 81.9237C51.7701 81.3555 51.905 80.5647 51.905 79.5515C51.905 78.5382 51.7677 77.7475 51.4931 77.1793C51.2232 76.6111 50.8255 76.2111 50.2999 75.979C49.7791 75.747 49.1399 75.631 48.3823 75.631H46.9903V83.4719ZM62.4582 72.2788V86.8242H58.5094V72.2788H62.4582ZM78.7092 77.7333H74.7035C74.6751 77.4019 74.5994 77.1012 74.4763 76.8313C74.3579 76.5614 74.1922 76.3294 73.9791 76.1353C73.7708 75.9364 73.5175 75.7849 73.2192 75.6808C72.9209 75.5719 72.5823 75.5174 72.2035 75.5174C71.5407 75.5174 70.9796 75.6784 70.5203 76.0004C70.0658 76.3223 69.7201 76.784 69.4834 77.3853C69.2514 77.9866 69.1354 78.7087 69.1354 79.5515C69.1354 80.4416 69.2537 81.1874 69.4905 81.7887C69.732 82.3853 70.08 82.8351 70.5345 83.1381C70.9891 83.4364 71.5359 83.5856 72.1751 83.5856C72.5397 83.5856 72.8664 83.5406 73.1553 83.4506C73.4441 83.3559 73.695 83.221 73.9081 83.0458C74.1212 82.8706 74.294 82.6599 74.4266 82.4137C74.5639 82.1628 74.6562 81.881 74.7035 81.5685L78.7092 81.5969C78.6619 82.2125 78.4891 82.8398 78.1908 83.479C77.8925 84.1135 77.4687 84.7006 76.9195 85.2404C76.3749 85.7754 75.7002 86.2063 74.8953 86.533C74.0904 86.8597 73.1553 87.0231 72.0899 87.0231C70.7547 87.0231 69.5568 86.7366 68.4962 86.1637C67.4403 85.5908 66.6046 84.748 65.9891 83.6353C65.3783 82.5226 65.0729 81.1613 65.0729 79.5515C65.0729 77.9322 65.3854 76.5685 66.0104 75.4606C66.6354 74.3479 67.4782 73.5075 68.5388 72.9393C69.5994 72.3664 70.7831 72.0799 72.0899 72.0799C73.0085 72.0799 73.8536 72.2054 74.6254 72.4563C75.3972 72.7073 76.0743 73.0742 76.6567 73.5572C77.2391 74.0354 77.7078 74.6249 78.0629 75.3256C78.418 76.0264 78.6335 76.829 78.7092 77.7333ZM95.3917 79.5515C95.3917 81.1708 95.0768 82.5368 94.4471 83.6495C93.8174 84.7575 92.9674 85.5979 91.8974 86.1708C90.8273 86.739 89.6341 87.0231 88.3178 87.0231C86.9921 87.0231 85.7942 86.7366 84.7241 86.1637C83.6587 85.5861 82.8112 84.7433 82.1815 83.6353C81.5565 82.5226 81.244 81.1613 81.244 79.5515C81.244 77.9322 81.5565 76.5685 82.1815 75.4606C82.8112 74.3479 83.6587 73.5075 84.7241 72.9393C85.7942 72.3664 86.9921 72.0799 88.3178 72.0799C89.6341 72.0799 90.8273 72.3664 91.8974 72.9393C92.9674 73.5075 93.8174 74.3479 94.4471 75.4606C95.0768 76.5685 95.3917 77.9322 95.3917 79.5515ZM91.3292 79.5515C91.3292 78.6803 91.2132 77.9464 90.9812 77.3498C90.7539 76.7485 90.4154 76.2939 89.9656 75.9862C89.5205 75.6737 88.9712 75.5174 88.3178 75.5174C87.6644 75.5174 87.1128 75.6737 86.663 75.9862C86.2179 76.2939 85.8794 76.7485 85.6474 77.3498C85.4201 77.9464 85.3065 78.6803 85.3065 79.5515C85.3065 80.4227 85.4201 81.159 85.6474 81.7603C85.8794 82.3569 86.2179 82.8114 86.663 83.1239C87.1128 83.4317 87.6644 83.5856 88.3178 83.5856C88.9712 83.5856 89.5205 83.4317 89.9656 83.1239C90.4154 82.8114 90.7539 82.3569 90.9812 81.7603C91.2132 81.159 91.3292 80.4227 91.3292 79.5515ZM110.604 72.2788V86.8242H107.309L102.053 79.1822H101.968V86.8242H98.0188V72.2788H101.371L106.541 79.8924H106.655V72.2788H110.604ZM7.82105 102.824H5.95742L10.1449 91.1879H12.1733L16.3608 102.824H14.4972L11.2074 93.3015H11.1165L7.82105 102.824ZM8.13355 98.2674H14.179V99.7447H8.13355V98.2674ZM28.7133 91.1879V102.824H27.0996L21.1849 94.2901H21.0769V102.824H19.3212V91.1879H20.9462L26.8667 99.7333H26.9746V91.1879H28.7133ZM34.31 91.1879V102.824H32.5543V91.1879H34.31ZM38.1468 91.1879H40.2775L43.9821 100.233H44.1184L47.823 91.1879H49.9537V102.824H48.2832V94.4038H48.1753L44.7434 102.807H43.3571L39.9253 94.3981H39.8173V102.824H38.1468V91.1879ZM54.7692 102.824H52.9055L57.093 91.1879H59.1214L63.3089 102.824H61.4453L58.1555 93.3015H58.0646L54.7692 102.824ZM55.0817 98.2674H61.1271V99.7447H55.0817V98.2674ZM64.3205 92.6992V91.1879H73.3262V92.6992H69.6955V102.824H67.9455V92.6992H64.3205ZM78.3519 91.1879V102.824H76.5962V91.1879H78.3519ZM92.2967 97.006C92.2967 98.2485 92.0694 99.3166 91.6149 100.211C91.1603 101.101 90.5372 101.786 89.7455 102.267C88.9577 102.745 88.0618 102.983 87.058 102.983C86.0505 102.983 85.1508 102.745 84.3592 102.267C83.5713 101.786 82.9501 101.099 82.4955 100.205C82.041 99.311 81.8137 98.2447 81.8137 97.006C81.8137 95.7636 82.041 94.6973 82.4955 93.8072C82.9501 92.9132 83.5713 92.2276 84.3592 91.7504C85.1508 91.2693 86.0505 91.0288 87.058 91.0288C88.0618 91.0288 88.9577 91.2693 89.7455 91.7504C90.5372 92.2276 91.1603 92.9132 91.6149 93.8072C92.0694 94.6973 92.2967 95.7636 92.2967 97.006ZM90.558 97.006C90.558 96.0591 90.4046 95.2617 90.0978 94.614C89.7948 93.9625 89.3781 93.4701 88.8478 93.1367C88.3213 92.7996 87.7247 92.631 87.058 92.631C86.3876 92.631 85.7891 92.7996 85.2626 93.1367C84.7361 93.4701 84.3194 93.9625 84.0126 94.614C83.7096 95.2617 83.558 96.0591 83.558 97.006C83.558 97.953 83.7096 98.7522 84.0126 99.4038C84.3194 100.051 84.7361 100.544 85.2626 100.881C85.7891 101.214 86.3876 101.381 87.058 101.381C87.7247 101.381 88.3213 101.214 88.8478 100.881C89.3781 100.544 89.7948 100.051 90.0978 99.4038C90.4046 98.7522 90.558 97.953 90.558 97.006ZM105.158 91.1879V102.824H103.544L97.6292 94.2901H97.5213V102.824H95.7656V91.1879H97.3906L103.311 99.7333H103.419V91.1879H105.158Z" fill="black"/>
</svg>
