<svg width="100" height="100" viewBox="0 0 100 100" fill="none" xmlns="http://www.w3.org/2000/svg">
<g clip-path="url(#clip0_97_602)">
<path d="M50 0C77.6142 0 100 22.3858 100 50C100 77.6142 77.6142 100 50 100C22.3858 100 0 77.6142 0 50C0 22.3858 22.3858 0 50 0ZM80.8994 32.1455C58.0285 13.9929 19.4531 23.2856 15.0225 38.6768C10.592 54.068 23.3497 71.2512 43.5176 77.0566C74.8219 83.9863 99.9445 56.3588 73.9043 61.8701C47.8636 67.3817 95.2993 43.575 80.8994 32.1455Z" fill="#FFA300"/>
<circle cx="57.7094" cy="32.7094" r="5.5564" transform="rotate(1.59998 57.7094 32.7094)" fill="#FFA300"/>
<circle cx="41.7094" cy="31.7094" r="5.5564" transform="rotate(1.59998 41.7094 31.7094)" fill="#FFA300"/>
<circle cx="26.7094" cy="38.7094" r="5.5564" transform="rotate(1.59998 26.7094 38.7094)" fill="#FFA300"/>
<circle cx="25.7094" cy="54.7094" r="5.5564" transform="rotate(1.59998 25.7094 54.7094)" fill="#FFA300"/>
<circle cx="38.7094" cy="65.7094" r="5.5564" transform="rotate(1.59998 38.7094 65.7094)" fill="#FFA300"/>
<path d="M57.332 63.4681L59.1426 62.6187L68.1177 79.3951L64.4964 81.094L57.332 63.4681Z" fill="#FFA300"/>
<path d="M58.9359 57.4689C59.8155 59.3439 59.3126 61.4343 57.8126 62.1381C56.3127 62.8418 54.3836 61.8922 53.504 60.0173C52.6243 58.1423 52.3024 51.4682 53.8024 50.7645C53.8594 56.5368 58.0563 55.5939 58.9359 57.4689Z" fill="#FFA300"/>
</g>
<defs>
<clipPath id="clip0_97_602">
<rect width="100" height="100" fill="white"/>
</clipPath>
</defs>
</svg>
