<svg width="160" height="180" viewBox="0 0 160 180" fill="none" xmlns="http://www.w3.org/2000/svg">
<path d="M75.9014 95.375C74.1011 95.5926 72.3115 95.953 70.5508 96.46C63.123 98.5987 56.6409 103.195 52.1641 109.496C47.6872 115.797 45.4812 123.431 45.9062 131.149C46.3314 138.867 49.3623 146.213 54.5039 151.984C59.6455 157.756 66.5934 161.612 74.2109 162.922C74.7732 163.019 75.3372 163.099 75.9014 163.167V169.008C59.9023 169.757 45.6186 173.765 35.3057 179.805H6.99316L0 167.69C7.77609 159.737 18.4482 146.564 32.4609 124.737C61.2079 79.9609 70.12 43.275 72.4473 31.127C66.4177 29.0792 62.2432 24.3837 62.2432 17.2783C62.2433 8.88291 68.071 1.84967 75.9014 0V95.375ZM84.0957 0C91.9259 1.84976 97.7527 8.883 97.7529 17.2783C97.7529 24.384 93.5788 29.0793 87.5488 31.127C89.876 43.2749 98.7891 79.9607 127.536 124.737C141.549 146.563 152.22 159.737 159.996 167.69L153.003 179.805H127.422C116.526 173.424 101.197 169.31 84.0957 168.912V163.167C88.3969 162.647 92.5904 161.312 96.4404 159.196C103.215 155.474 108.526 149.563 111.505 142.431L98.6816 137.075C96.9151 141.305 93.7652 144.809 89.748 147.017C85.7309 149.224 81.0836 150.002 76.5664 149.226C72.0492 148.449 67.9288 146.163 64.8799 142.74C61.8309 139.318 60.0333 134.961 59.7812 130.385C59.5292 125.808 60.8385 121.281 63.4932 117.545C66.1479 113.808 69.9918 111.083 74.3965 109.814C78.8011 108.546 83.506 108.811 87.7412 110.563C91.9763 112.316 95.4917 115.454 97.7119 119.464L109.869 112.732C106.125 105.97 100.197 100.678 93.0547 97.7227C90.169 96.5284 87.1543 95.7437 84.0957 95.374V0Z" fill="black"/>
</svg>
