<svg width="100" height="100" viewBox="0 0 100 100" fill="none" xmlns="http://www.w3.org/2000/svg">
<g clip-path="url(#clip0_97_603)">
<path d="M50 0C77.6142 0 100 22.3858 100 50C100 77.6142 77.6142 100 50 100C22.3858 100 0 77.6142 0 50C0 29.0765 12.8532 11.1575 31.0938 3.70117C30.4363 5.72318 30.221 8.13995 30.6621 11.0762C31.2097 14.7212 32.0644 17.4151 33.4521 19.3018C34.9032 21.2744 36.8233 22.2157 39.1074 22.584C41.3006 22.9375 43.9172 22.7765 46.8662 22.5312C49.8707 22.2814 53.3321 21.931 57.4268 21.8213C59.4309 21.7677 60.4156 22.0505 60.8262 22.3115C60.99 22.4158 61.0196 22.4888 61.0293 22.5146C61.0453 22.5574 61.0763 22.6816 61.0254 22.9453C60.9135 23.5234 60.4854 24.3837 59.6533 25.498C58.8463 26.5787 57.7603 27.7677 56.5156 28.9912C54.0278 31.4366 51.0121 33.9148 48.6006 35.793C48.0324 36.2355 47.4991 36.6429 47.0166 37.0078C42.1054 37.046 37.5752 37.2689 33.8037 38.2979C32.4364 36.0938 30.6109 34.6087 28.4229 34.1484C21.9422 32.7853 14.7441 40.9261 12.3447 52.332C9.94538 63.7381 13.2537 74.0899 19.7344 75.4531C24.1935 76.391 28.9923 72.8288 32.334 66.7998C36.8466 67.3508 42.6581 66.585 49 66.585C55.7847 66.585 61.9621 67.4613 66.5918 66.6641C69.9364 72.7751 74.7732 76.398 79.2656 75.4531C85.7463 74.0899 89.0546 63.7381 86.6553 52.332C84.2559 40.9261 77.0578 32.7853 70.5771 34.1484C68.3076 34.6259 66.4275 36.2056 65.0449 38.5469C61.3385 37.3748 56.8216 37.0809 51.8887 37.0166C54.0462 35.2886 56.5004 33.2125 58.6172 31.1318C59.92 29.8512 61.1235 28.5416 62.0566 27.292C62.9644 26.0763 63.7274 24.773 63.9707 23.5146C64.0971 22.8609 64.0979 22.1484 63.8369 21.4561C63.5695 20.747 63.0759 20.187 62.4365 19.7803C61.2392 19.0187 59.4903 18.7649 57.3467 18.8223C53.1439 18.9348 49.5672 19.2958 46.6182 19.541C43.6142 19.7908 41.3594 19.9081 39.585 19.6221C37.9018 19.3507 36.7574 18.7332 35.8682 17.5244C34.9155 16.2291 34.1527 14.1176 33.6289 10.6309C33.1328 7.32834 33.6218 5.02542 34.4863 3.31836C34.6774 2.94115 34.8904 2.58651 35.1211 2.25098C39.8211 0.788004 44.8185 0 50 0Z" fill="#FFA300"/>
<rect x="29.5" y="42" width="2" height="11" rx="1" fill="#FFA300"/>
<rect x="36" y="46.5" width="2" height="11" rx="1" transform="rotate(90 36 46.5)" fill="#FFA300"/>
<circle cx="69.5" cy="44" r="2" fill="#FFA300"/>
<circle cx="73" cy="47.5" r="2" transform="rotate(90 73 47.5)" fill="#FFA300"/>
<circle cx="69.5" cy="51" r="2" fill="#FFA300"/>
<circle cx="66" cy="47.5" r="2" transform="rotate(90 66 47.5)" fill="#FFA300"/>
<circle cx="41.5" cy="56.5" r="5.5" fill="#FFA300"/>
<circle cx="58.5" cy="56.5" r="5.5" fill="#FFA300"/>
</g>
<defs>
<clipPath id="clip0_97_603">
<rect width="100" height="100" fill="white"/>
</clipPath>
</defs>
</svg>
