<svg width="100" height="100" viewBox="0 0 100 100" fill="none" xmlns="http://www.w3.org/2000/svg">
<g clip-path="url(#clip0_97_604)">
<path d="M50 0C77.6142 0 100 22.3858 100 50C100 77.6142 77.6142 100 50 100C22.3858 100 0 77.6142 0 50C0 22.3858 22.3858 0 50 0ZM20 18.8652V83.8652H33V77.8652H27V75.8652H33V72.8652H24V70.8652H33V65.8652H27V63.8652H33V60.8652H24V58.8652H33V53.8652H27V51.8652H33V48.8652H24V46.8652H33V41.8652H27V39.8652H33V36.8652H24V34.8652H33V29.8652H27V27.8652H33V24.8652H24V22.8652H33V18.8652H20ZM40 83.8652H80V81.8652H40V83.8652ZM40 76.8652H80V74.8652H40V76.8652ZM40 69.8652H80V67.8652H40V69.8652ZM38 61.8652H82V55.8652H49.2373L58.25 50.6641L58.793 50.3506L58.9512 49.7441L60.9883 41.9365L62.6787 45.0762L64.3691 48.2139L65.4316 44.8125L69.3213 32.3633L70.1582 34.0361L71.2646 36.248L72.7139 34.2451L83.2148 19.7451L80.7852 17.9854L71.7354 30.4814L70.3418 27.6943L68.6777 24.3672L67.5684 27.918L63.6309 40.5176L61.8213 37.1543L60.0117 33.7939L59.0488 37.4873L56.207 48.3799L44 55.4238V17.8652H38V61.8652Z" fill="#FFA300"/>
</g>
<defs>
<clipPath id="clip0_97_604">
<rect width="100" height="100" fill="white"/>
</clipPath>
</defs>
</svg>
